<svg id="Layer_1" enable-background="new 0 0 512 512" height="512" viewBox="0 0 512 512" width="512" xmlns="http://www.w3.org/2000/svg"><g><path d="m106 182h300v240h-300z" fill="#fff"/><path d="m76 182v10c0 16.568 13.431 30 30 30 16.568 0 30-13.432 30-30v-10z" fill="#ffee80"/><path d="m136 150v32h60v-52c0-22.091 17.909-40 40-40h-40c-33.137 0-60 26.863-60 60z" fill="#ffbecb"/><path d="m316 182v-52c0-22.091-17.909-40-40-40h-20v92z" fill="#ffbecb"/><path d="m196 130v52h60v-92h-20c-22.091 0-40 17.909-40 40z" fill="#ffee80"/><path d="m316 130v52h60v-32c0-33.137-26.863-60-60-60h-40c22.091 0 40 17.909 40 40z" fill="#ffee80"/><path d="m196 182h-60v10c0 16.568 13.431 30 30 30 16.568 0 29.999-13.431 30-29.999v-.001z" fill="#ffbecb"/><path d="m136 150c0-33.137 26.863-60 60-60h-60c-33.137 0-60 26.863-60 60v32h60z" fill="#ffee80"/><path d="m376 90h-60c33.137 0 60 26.863 60 60v32h60v-32c0-33.137-26.863-60-60-60z" fill="#ffbecb"/><path d="m196 182v10 .001-.001.001c.001 16.568 13.432 29.999 30 29.999 16.568 0 30-13.432 30-30v-10z" fill="#ffee80"/><path d="m376 192c0 16.568 13.431 30 30 30s30-13.432 30-30v-10h-60z" fill="#ffbecb"/><path d="m316 182h-60v10c0 16.568 13.431 30 30 30 16.568 0 30-13.431 30-29.999v-.001.001-.001z" fill="#ffbecb"/><path d="m316 182v10 .001c.001 16.568 13.432 29.999 30 29.999 16.569 0 30-13.432 30-30v-10z" fill="#ffee80"/><path d="m146 262h100v160h-100z" fill="#ccf5fc"/><path d="m136 10h240v80h-240z" fill="#ccf5fc"/><g><path d="m336 60h-160c-5.523 0-10-4.478-10-10s4.477-10 10-10h160c5.523 0 10 4.478 10 10s-4.477 10-10 10z" fill="#fff"/></g><path d="m361 344h-70c-2.761 0-5-2.239-5-5v-72c0-2.761 2.239-5 5-5h70c2.761 0 5 2.239 5 5v72c0 2.761-2.239 5-5 5z" fill="#ccf5fc"/><path d="m76 422h360v40h-360z" fill="#99ebfa"/><path d="m46 462h420v40h-420z" fill="#99ebfa"/><g><path d="m466 452h-20v-30c0-5.522-4.477-10-10-10h-20v-181.266c17.233-4.452 30-20.13 30-38.734v-42c0-35.202-26.124-64.406-60-69.274v-70.726c0-5.523-4.477-10-10-10h-240c-5.523 0-10 4.477-10 10v70.726c-33.877 4.868-60 34.072-60 69.274v42c0 18.604 12.767 34.282 30 38.734v181.266h-20c-5.523 0-10 4.478-10 10v30h-20c-5.523 0-10 4.478-10 10v40c0 5.522 4.477 10 10 10h420c5.523 0 10-4.478 10-10v-40c0-5.522-4.477-10-10-10zm-60-240c-11.028 0-20-8.972-20-20h40c0 11.028-8.972 20-20 20zm-210-112h.027c-6.292 8.362-10.027 18.752-10.027 30v42h-40v-22c0-27.57 22.43-50 50-50zm80 0c16.542 0 30 13.458 30 30v42h-40v-72zm40 0c27.57 0 50 22.43 50 50v22h-40v-42c0-11.248-3.735-21.638-10.027-30zm-70 0v72h-40v-42c0-16.542 13.458-30 30-30zm-60 92c0 11.028-8.972 20-20 20s-20-8.972-20-20zm60 0c0 11.028-8.972 20-20 20s-20-8.972-20-20zm60 0c0 11.028-8.972 20-20 20s-20-8.972-20-20zm60 0c0 11.028-8.972 20-20 20s-20-8.972-20-20zm60-42v22h-40v-22c0-19.572-8.084-37.284-21.077-50h11.077c27.57 0 50 22.43 50 50zm-60-130v60h-220v-60zm-230 80h11.077c-12.993 12.716-21.077 30.428-21.077 50v22h-40v-22c0-27.57 22.43-50 50-50zm-50 92h40c0 11.028-8.972 20-20 20s-20-8.972-20-20zm30 38.734c7.861-2.031 14.785-6.404 20-12.319 7.335 8.321 18.062 13.585 30 13.585s22.665-5.264 30-13.585c7.335 8.321 18.062 13.585 30 13.585s22.665-5.264 30-13.585c7.335 8.321 18.061 13.585 30 13.585s22.665-5.264 30-13.585c7.335 8.321 18.061 13.585 30 13.585s22.665-5.264 30-13.585c5.215 5.915 12.139 10.288 20 12.319v181.266h-140v-150c0-5.522-4.477-10-10-10h-100c-5.523 0-10 4.478-10 10v150h-20zm40 181.266v-60h80v60zm80-80h-80v-60h80zm-150 100h340v20h-340zm370 60h-400v-20h400z" fill="#60a4ff"/></g></g></svg>