<svg id="Layer_1" enable-background="new 0 0 512 512" height="512" viewBox="0 0 512 512" width="512" xmlns="http://www.w3.org/2000/svg"><g><path d="m276 462v-452h-40v452" fill="#ff9eb1"/><path d="m386 136h-200v-80h200l40 40z" fill="#ffbecb"/><path d="m126 256h200v-80h-200l-40 40z" fill="#ffbecb"/><path d="m176 462h160v40h-160z" fill="#ff7d97"/><circle cx="256" cy="96" fill="#ff9eb1" r="10"/><path d="m386 376h-200v-80h200l40 40z" fill="#ffbecb"/><path d="m393.071 288.929c-1.876-1.875-4.419-2.929-7.071-2.929h-100v-20h40c5.522 0 10-4.478 10-10v-80c0-5.523-4.478-10-10-10h-40v-20h100c2.652 0 5.195-1.054 7.071-2.929l40-40c3.905-3.905 3.905-10.237 0-14.143l-40-40c-1.876-1.874-4.419-2.928-7.071-2.928h-100v-36c0-5.523-4.478-10-10-10h-40c-5.523 0-10 4.477-10 10v36h-40c-5.523 0-10 4.478-10 10v80c0 5.523 4.477 10 10 10h40v20h-100c-2.652 0-5.195 1.054-7.071 2.929l-40 40c-3.905 3.905-3.905 10.237 0 14.143l40 40c1.876 1.875 4.419 2.929 7.071 2.929h100v20h-40c-5.523 0-10 4.478-10 10v80c0 5.522 4.477 10 10 10h40v66h-50c-5.523 0-10 4.478-10 10v40c0 5.522 4.477 10 10 10h160c5.522 0 10-4.478 10-10v-40c0-5.522-4.478-10-10-10h-50v-66h100c2.652 0 5.195-1.054 7.071-2.929l40-40c3.905-3.905 3.905-10.237 0-14.143zm-147.071-268.929h20v26h-20zm-50 46h185.857l30 30-30 30h-185.857zm50 80h20v20h-20zm-145.857 70 30-30h185.857v60h-185.857zm145.857 50h20v20h-20zm80 226h-140v-20h140zm-60-40h-20v-66h20zm115.857-86h-185.857v-60h185.857l30 30z" fill="#ff5d7d"/><g fill="#ff9eb1"><circle cx="256" cy="336" r="10"/><circle cx="256" cy="216" r="10"/></g></g></svg>