<svg id="Layer_1" enable-background="new 0 0 512 512" height="512" viewBox="0 0 512 512" width="512" xmlns="http://www.w3.org/2000/svg"><g><path d="m316 386c66.274 0 120-53.726 120-120h-120c0 44.416-24.133 83.193-60 103.942 17.651 10.211 38.142 16.058 60 16.058z" fill="#cecdf3"/><path d="m196 266c0 66.274 53.726 120 120 120s120-53.726 120-120c0 99.411-80.589 180-180 180s-180-80.589-180-180" fill="#e6e6f9"/><path d="m502 76h-116v-10c0-5.523-4.478-10-10-10s-10 4.477-10 10v10h-220v-10c0-5.523-4.477-10-10-10s-10 4.477-10 10v10h-116c-5.523 0-10 4.477-10 10s4.477 10 10 10h116v67.23l-55.662 92.77h-14.338c-5.522 0-10 4.477-10 10s4.478 10 10 10h10.263c5.218 100.136 88.325 180 189.737 180 101.41 0 184.517-79.866 189.737-180h10.263c5.522 0 10-4.477 10-10s-4.478-10-10-10h-14.338l-55.662-92.77v-67.23h116c5.522 0 10-4.477 10-10s-4.478-10-10-10zm-356 126.103 32.338 53.897h-32.338zm-20 53.897h-32.338l32.338-53.897zm130 180c-90.381 0-164.503-70.899-169.698-160h100.079c5.123 67.028 61.301 120 129.619 120 25.695 0 49.676-7.496 69.866-20.412-31.209 36.924-77.847 60.412-129.866 60.412zm60-60c-14.108 0-27.604-2.673-40.01-7.534 13.174-10.304 24.334-23.099 32.709-37.627 9.657-16.751 15.414-35.534 16.9-54.839h99.941c-5.069 55.985-52.257 100-109.54 100zm50-120h-32.338l32.338-53.897zm52.338 0h-32.338v-53.897zm-52.338-92.77-55.662 92.77h-14.338c-5.522 0-10 4.477-10 10s4.478 10 10 10h9.547c-2.989 33.592-20.954 63.593-49.5 82.181-27.474-17.929-46.474-47.795-49.588-82.181h9.541c5.523 0 10-4.477 10-10s-4.477-10-10-10h-14.338l-55.662-92.77v-67.23h220z" fill="#c193dc"/></g></svg>